<?xml version="1.0" encoding="UTF-8"?>
<svg height="600" width="800" xmlns="http://www.w3.org/2000/svg" xmlns:xlink="http://www.w3.org/1999/xlink">
    <g id="Notes" font-family="'LucidaGrande', 'Lucida Grande', sans-serif" font-size="13">
        <rect fill="white" height="600.0" width="800.0" x="0.0" y="0.0" />
        <g font-size="13">
            <text x="18.0" y="176.0">Small</text>
            <text x="18.0" y="376.0">Medium</text>
            <text x="18.0" y="576.0">Large</text>
        </g>
        <g font-size="9">
            <text x="250.0" y="30.0">Ultralight</text>
            <text x="450.0" y="30.0">Regular</text>
            <text x="650.0" y="30.0">Black</text>
            <text id="template-version" fill="#505050" text-anchor="end" x="785.0" y="575.0">Template v.3.0</text>
            <a href="https://wangchujiang.com/#/app">
                <text fill="#505050" text-anchor="end" x="785.0" y="590.0">https://wangchujiang.com/#/app</text>
            </a>
        </g>
    </g>
    <g id="Guides" stroke="rgb(39, 170, 225)" stroke-width="0.5">
        <path id="Capline-S" d="M18,76 l800,0" />
        <path id="H-reference" d="M85,145.755 L87.685,145.755 L113.369,79.287 L114.052,79.287 L114.052,76 L112.148,76 L85,145.755 Z M95.693,121.536 L130.996,121.536 L130.263,119.313 L96.474,119.313 L95.693,121.536 Z M139.15,145.755 L141.787,145.755 L114.638,76 L113.466,76 L113.466,79.287 L139.15,145.755 Z" stroke="none" />
        <path id="Baseline-S" d="M18,146 l800,0" />
        <path id="left-margin-Ultralight-S" d="M220.001,56 l0,110" />
        <path id="right-margin-Ultralight-S" d="M309.999,56 l0,110" />
        <path id="left-margin-Regular-S" d="M420.001,56 l0,110" />
        <path id="right-margin-Regular-S" d="M509.999,56 l0,110" />
        <path id="left-margin-Black-S" d="M620.001,56 l0,110" />
        <path id="right-margin-Black-S" d="M709.999,56 l0,110" />
        <path id="Capline-M" d="M18,276 l800,0" />
        <path id="Baseline-M" d="M18,346 l800,0" />
        <path id="Capline-L" d="M18,476 l800,0" />
        <path id="Baseline-L" d="M18,546 l800,0" />
    </g>
    <g id="Symbols">
        <g id="Ultralight-S">
            <path d="M259.75,76 C246.719,76.001 235.206,84.483 231.341,96.928 C227.477,109.373 232.162,122.884 242.901,130.266 C253.639,137.648 267.932,137.181 278.167,129.115 L294.022,144.974 C295.388,146.341 297.604,146.342 298.972,144.976 C300.34,143.61 300.341,141.393 298.975,140.025 L283.117,124.167 C290.173,115.216 291.495,103.02 286.52,92.765 C281.545,82.51 271.148,75.999 259.75,76 Z M237.001,105.75 C237.001,93.185 247.186,83 259.75,83 C272.315,83 282.5,93.185 282.5,105.75 C282.5,118.314 272.315,128.499 259.75,128.499 C247.186,128.499 237.001,118.314 237.001,105.75 Z" />
        </g>
        <g id="Regular-S">
            <path d="M459.75,76 C446.719,76.001 435.206,84.483 431.341,96.928 C427.477,109.373 432.162,122.884 442.901,130.266 C453.639,137.648 467.932,137.181 478.167,129.115 L494.022,144.974 C495.388,146.341 497.604,146.342 498.972,144.976 C500.34,143.61 500.341,141.393 498.975,140.025 L483.117,124.167 C490.173,115.216 491.495,103.02 486.52,92.765 C481.545,82.51 471.148,75.999 459.75,76 Z M437.001,105.75 C437.001,93.185 447.186,83 459.75,83 C472.315,83 482.5,93.185 482.5,105.75 C482.5,118.314 472.315,128.499 459.75,128.499 C447.186,128.499 437.001,118.314 437.001,105.75 Z" />
        </g>
        <g id="Black-S">
            <path d="M659.75,76 C646.719,76.001 635.206,84.483 631.341,96.928 C627.477,109.373 632.162,122.884 642.901,130.266 C653.64,137.648 667.932,137.181 678.167,129.115 L694.022,144.974 C695.388,146.341 697.604,146.342 698.972,144.976 C700.34,143.61 700.341,141.393 698.975,140.025 L683.117,124.167 C690.173,115.216 691.495,103.02 686.52,92.765 C681.545,82.51 671.148,75.999 659.75,76 Z M637.001,105.75 C637.001,93.185 647.186,83 659.75,83 C672.315,83 682.5,93.185 682.5,105.75 C682.5,118.314 672.315,128.499 659.75,128.499 C647.186,128.499 637.001,118.314 637.001,105.75 Z" />
        </g>
    </g>
</svg>