<?xml version="1.0" encoding="UTF-8"?>
<svg height="600" width="800" xmlns="http://www.w3.org/2000/svg" xmlns:xlink="http://www.w3.org/1999/xlink">
    <g id="Notes" font-family="'LucidaGrande', 'Lucida Grande', sans-serif" font-size="13">
        <rect fill="white" height="600.0" width="800.0" x="0.0" y="0.0" />
        <g font-size="13">
            <text x="18.0" y="176.0">Small</text>
            <text x="18.0" y="376.0">Medium</text>
            <text x="18.0" y="576.0">Large</text>
        </g>
        <g font-size="9">
            <text x="250.0" y="30.0">Ultralight</text>
            <text x="450.0" y="30.0">Regular</text>
            <text x="650.0" y="30.0">Black</text>
            <text id="template-version" fill="#505050" text-anchor="end" x="785.0" y="575.0">Template v.3.0</text>
            <a href="https://wangchujiang.com/#/app">
                <text fill="#505050" text-anchor="end" x="785.0" y="590.0">https://wangchujiang.com/#/app</text>
            </a>
        </g>
    </g>
    <g id="Guides" stroke="rgb(39, 170, 225)" stroke-width="0.5">
        <path id="Capline-S" d="M18,76 l800,0" />
        <path id="H-reference" d="M85,145.755 L87.685,145.755 L113.369,79.287 L114.052,79.287 L114.052,76 L112.148,76 L85,145.755 Z M95.693,121.536 L130.996,121.536 L130.263,119.313 L96.474,119.313 L95.693,121.536 Z M139.15,145.755 L141.787,145.755 L114.638,76 L113.466,76 L113.466,79.287 L139.15,145.755 Z" stroke="none" />
        <path id="Baseline-S" d="M18,146 l800,0" />
        <path id="left-margin-Ultralight-S" d="M220.003,56 l0,110" />
        <path id="right-margin-Ultralight-S" d="M309.997,56 l0,110" />
        <path id="left-margin-Regular-S" d="M420.003,56 l0,110" />
        <path id="right-margin-Regular-S" d="M509.997,56 l0,110" />
        <path id="left-margin-Black-S" d="M620.003,56 l0,110" />
        <path id="right-margin-Black-S" d="M709.997,56 l0,110" />
        <path id="Capline-M" d="M18,276 l800,0" />
        <path id="Baseline-M" d="M18,346 l800,0" />
        <path id="Capline-L" d="M18,476 l800,0" />
        <path id="Baseline-L" d="M18,546 l800,0" />
    </g>
    <g id="Symbols">
        <g id="Ultralight-S">
            <path d="M275.454,76 C267.983,75.998 260.918,79.399 256.259,85.238 C251.6,91.078 249.853,98.722 251.514,106.006 L231.028,126.495 C230.372,127.151 230.003,128.041 230.003,128.969 L230.003,142.5 C230.003,143.428 230.372,144.318 231.028,144.975 C231.684,145.631 232.575,146 233.503,146 L246.103,146 C249.776,146 252.753,143.023 252.753,139.35 L252.753,136.55 L255.553,136.55 C259.226,136.55 262.203,133.573 262.203,129.9 L262.203,127.1 L265.003,127.1 C265.954,127.1 266.863,126.713 267.523,126.029 L269.199,124.289 C278.412,126.714 288.195,123.59 294.298,116.275 C300.401,108.961 301.721,98.776 297.684,90.147 C293.648,81.518 284.984,76.004 275.457,76 Z M257.908,100.549 C257.912,92.88 262.891,86.104 270.204,83.81 C277.518,81.515 285.475,84.233 289.857,90.522 C294.238,96.812 294.031,105.217 289.344,111.283 C284.658,117.349 276.577,119.671 269.385,117.019 C268.082,116.538 266.618,116.873 265.654,117.873 L263.512,120.099 L258.703,120.099 C257.775,120.099 256.884,120.467 256.228,121.124 C255.572,121.78 255.203,122.67 255.203,123.599 L255.203,129.549 L249.253,129.549 C248.325,129.549 247.434,129.917 246.778,130.574 C246.122,131.23 245.753,132.12 245.753,133.049 L245.753,139 L237.003,139 L237.003,130.425 L257.905,109.523 C258.835,108.592 259.165,107.219 258.759,105.967 C258.193,104.218 257.906,102.391 257.908,100.553 Z M277.253,90 C272.42,90 268.503,93.918 268.503,98.75 C268.503,103.582 272.42,107.5 277.253,107.5 C282.085,107.5 286.003,103.582 286.003,98.75 C286.003,93.918 282.085,90 277.253,90 Z M275.503,98.75 C275.503,97.784 276.286,97 277.253,97 C278.219,97 279.003,97.784 279.003,98.75 C279.003,99.716 278.219,100.5 277.253,100.5 C276.286,100.5 275.503,99.716 275.503,98.75 Z" />
        </g>
        <g id="Regular-S">
            <path d="M475.454,76 C467.983,75.998 460.918,79.399 456.259,85.238 C451.6,91.078 449.853,98.722 451.514,106.006 L431.028,126.495 C430.372,127.151 430.003,128.041 430.003,128.969 L430.003,142.5 C430.003,143.428 430.372,144.318 431.028,144.975 C431.684,145.631 432.575,146 433.503,146 L446.103,146 C449.776,146 452.753,143.023 452.753,139.35 L452.753,136.55 L455.553,136.55 C459.226,136.55 462.203,133.573 462.203,129.9 L462.203,127.1 L465.003,127.1 C465.954,127.1 466.863,126.713 467.523,126.029 L469.199,124.289 C478.412,126.714 488.195,123.59 494.298,116.275 C500.401,108.961 501.721,98.776 497.684,90.147 C493.648,81.518 484.984,76.004 475.457,76 Z M457.908,100.549 C457.912,92.88 462.891,86.104 470.204,83.81 C477.518,81.515 485.475,84.233 489.857,90.522 C494.238,96.812 494.031,105.217 489.344,111.283 C484.658,117.349 476.577,119.671 469.385,117.019 C468.082,116.538 466.618,116.873 465.654,117.873 L463.512,120.099 L458.703,120.099 C457.775,120.099 456.884,120.467 456.228,121.124 C455.572,121.78 455.203,122.67 455.203,123.599 L455.203,129.549 L449.253,129.549 C448.325,129.549 447.434,129.917 446.778,130.574 C446.122,131.23 445.753,132.12 445.753,133.049 L445.753,139 L437.003,139 L437.003,130.425 L457.905,109.523 C458.835,108.592 459.165,107.219 458.759,105.967 C458.193,104.218 457.906,102.391 457.908,100.553 Z M477.253,90 C472.42,90 468.503,93.918 468.503,98.75 C468.503,103.582 472.42,107.5 477.253,107.5 C482.085,107.5 486.003,103.582 486.003,98.75 C486.003,93.918 482.085,90 477.253,90 Z M475.503,98.75 C475.503,97.784 476.286,97 477.253,97 C478.219,97 479.003,97.784 479.003,98.75 C479.003,99.716 478.219,100.5 477.253,100.5 C476.286,100.5 475.503,99.716 475.503,98.75 Z" />
        </g>
        <g id="Black-S">
            <path d="M675.454,76 C667.983,75.998 660.918,79.399 656.259,85.238 C651.6,91.078 649.853,98.722 651.514,106.006 L631.028,126.495 C630.372,127.151 630.003,128.041 630.003,128.969 L630.003,142.5 C630.003,143.428 630.372,144.318 631.028,144.975 C631.684,145.631 632.575,146 633.503,146 L646.103,146 C649.776,146 652.753,143.023 652.753,139.35 L652.753,136.55 L655.553,136.55 C659.226,136.55 662.203,133.573 662.203,129.9 L662.203,127.1 L665.003,127.1 C665.953,127.1 666.863,126.713 667.523,126.029 L669.199,124.289 C678.412,126.714 688.195,123.59 694.298,116.275 C700.401,108.961 701.721,98.776 697.684,90.147 C693.648,81.518 684.984,76.004 675.457,76 Z M657.908,100.549 C657.912,92.88 662.891,86.104 670.204,83.81 C677.518,81.515 685.475,84.233 689.857,90.522 C694.238,96.812 694.031,105.217 689.344,111.283 C684.658,117.349 676.577,119.671 669.385,117.019 C668.082,116.538 666.618,116.873 665.654,117.873 L663.512,120.099 L658.703,120.099 C657.775,120.099 656.884,120.467 656.228,121.124 C655.572,121.78 655.203,122.67 655.203,123.599 L655.203,129.549 L649.253,129.549 C648.325,129.549 647.434,129.917 646.778,130.574 C646.122,131.23 645.753,132.12 645.753,133.049 L645.753,139 L637.003,139 L637.003,130.425 L657.905,109.523 C658.835,108.592 659.165,107.219 658.759,105.967 C658.193,104.218 657.906,102.391 657.908,100.553 Z M677.253,90 C672.42,90 668.503,93.918 668.503,98.75 C668.503,103.582 672.42,107.5 677.253,107.5 C682.085,107.5 686.003,103.582 686.003,98.75 C686.003,93.918 682.085,90 677.253,90 Z M675.503,98.75 C675.503,97.784 676.286,97 677.253,97 C678.219,97 679.003,97.784 679.003,98.75 C679.003,99.716 678.219,100.5 677.253,100.5 C676.286,100.5 675.503,99.716 675.503,98.75 Z" />
        </g>
    </g>
</svg>