<?xml version="1.0" encoding="UTF-8"?>
<svg height="600" width="800" xmlns="http://www.w3.org/2000/svg" xmlns:xlink="http://www.w3.org/1999/xlink">
    <g id="Notes" font-family="'LucidaGrande', 'Lucida Grande', sans-serif" font-size="13">
        <rect fill="white" height="600.0" width="800.0" x="0.0" y="0.0" />
        <g font-size="13">
            <text x="18.0" y="176.0">Small</text>
            <text x="18.0" y="376.0">Medium</text>
            <text x="18.0" y="576.0">Large</text>
        </g>
        <g font-size="9">
            <text x="250.0" y="30.0">Ultralight</text>
            <text x="450.0" y="30.0">Regular</text>
            <text x="650.0" y="30.0">Black</text>
            <text id="template-version" fill="#505050" text-anchor="end" x="785.0" y="575.0">Template v.3.0</text>
            <a href="https://wangchujiang.com/#/app">
                <text fill="#505050" text-anchor="end" x="785.0" y="590.0">https://wangchujiang.com/#/app</text>
            </a>
        </g>
    </g>
    <g id="Guides" stroke="rgb(39, 170, 225)" stroke-width="0.5">
        <path id="Capline-S" d="M18,76 l800,0" />
        <path id="H-reference" d="M85,145.755 L87.685,145.755 L113.369,79.287 L114.052,79.287 L114.052,76 L112.148,76 L85,145.755 Z M95.693,121.536 L130.996,121.536 L130.263,119.313 L96.474,119.313 L95.693,121.536 Z M139.15,145.755 L141.787,145.755 L114.638,76 L113.466,76 L113.466,79.287 L139.15,145.755 Z" stroke="none" />
        <path id="Baseline-S" d="M18,146 l800,0" />
        <path id="left-margin-Ultralight-S" d="M221,56 l0,110" />
        <path id="right-margin-Ultralight-S" d="M309,56 l0,110" />
        <path id="left-margin-Regular-S" d="M421,56 l0,110" />
        <path id="right-margin-Regular-S" d="M509,56 l0,110" />
        <path id="left-margin-Black-S" d="M621,56 l0,110" />
        <path id="right-margin-Black-S" d="M709,56 l0,110" />
        <path id="Capline-M" d="M18,276 l800,0" />
        <path id="Baseline-M" d="M18,346 l800,0" />
        <path id="Capline-L" d="M18,476 l800,0" />
        <path id="Baseline-L" d="M18,546 l800,0" />
    </g>
    <g id="Symbols">
        <g id="Ultralight-S">
            <path d="M265,76 C261.313,76 257.777,77.465 255.17,80.072 C252.563,82.679 251.098,86.215 251.098,89.902 L251.098,107.433 C251.098,115.11 257.322,121.334 265,121.334 C272.678,121.334 278.902,115.11 278.902,107.433 L278.902,89.902 C278.902,86.215 277.437,82.679 274.83,80.072 C272.223,77.465 268.687,76 265,76 Z M257.865,89.902 C257.867,85.963 261.061,82.77 265,82.77 C268.939,82.77 272.133,85.963 272.135,89.902 L272.135,107.432 C272.136,109.982 270.777,112.339 268.569,113.614 C266.36,114.89 263.64,114.89 261.432,113.614 C259.223,112.339 257.864,109.982 257.865,107.432 L257.865,89.902 Z" />
            <path d="M247.469,138.988 C245.533,138.988 243.963,140.557 243.963,142.494 C243.963,144.43 245.533,146 247.469,146 L282.531,146 C284.467,146 286.037,144.43 286.037,142.494 C286.037,140.557 284.467,138.988 282.531,138.988 L268.506,138.988 L268.506,135.264 C282.531,133.496 293.049,121.568 293.049,107.433 C293.049,105.496 291.479,103.926 289.543,103.926 C287.607,103.926 286.037,105.496 286.037,107.433 C286.037,119.051 276.618,128.469 265,128.469 C253.382,128.469 243.963,119.051 243.963,107.433 C243.963,105.496 242.393,103.926 240.457,103.926 C238.521,103.926 236.951,105.496 236.951,107.433 C236.951,121.568 247.469,133.495 261.493,135.264 L261.493,138.988 L247.469,138.988 Z" />
        </g>
        <g id="Regular-S">
            <path d="M465,76 C461.313,76 457.777,77.465 455.17,80.072 C452.563,82.679 451.098,86.215 451.098,89.902 L451.098,107.433 C451.098,115.11 457.322,121.334 465,121.334 C472.678,121.334 478.902,115.11 478.902,107.433 L478.902,89.902 C478.902,86.215 477.437,82.679 474.83,80.072 C472.223,77.465 468.687,76 465,76 Z M457.865,89.902 C457.867,85.963 461.061,82.77 465,82.77 C468.939,82.77 472.133,85.963 472.135,89.902 L472.135,107.432 C472.136,109.982 470.777,112.339 468.568,113.614 C466.36,114.89 463.64,114.89 461.431,113.614 C459.223,112.339 457.864,109.982 457.865,107.432 L457.865,89.902 Z" />
            <path d="M447.469,138.988 C445.533,138.988 443.963,140.557 443.963,142.494 C443.963,144.43 445.533,146 447.469,146 L482.531,146 C484.467,146 486.037,144.43 486.037,142.494 C486.037,140.557 484.467,138.988 482.531,138.988 L468.506,138.988 L468.506,135.264 C482.531,133.496 493.049,121.568 493.049,107.433 C493.049,105.496 491.479,103.926 489.543,103.926 C487.607,103.926 486.037,105.496 486.037,107.433 C486.037,119.051 476.618,128.469 465,128.469 C453.382,128.469 443.963,119.051 443.963,107.433 C443.963,105.496 442.393,103.926 440.457,103.926 C438.521,103.926 436.951,105.496 436.951,107.433 C436.951,121.568 447.469,133.495 461.493,135.264 L461.493,138.988 L447.469,138.988 Z" />
        </g>
        <g id="Black-S">
            <path d="M665,76 C661.313,76 657.777,77.465 655.17,80.072 C652.563,82.679 651.098,86.215 651.098,89.902 L651.098,107.433 C651.098,115.11 657.322,121.334 665,121.334 C672.678,121.334 678.902,115.11 678.902,107.433 L678.902,89.902 C678.902,86.215 677.437,82.679 674.83,80.072 C672.223,77.465 668.687,76 665,76 Z M657.865,89.902 C657.867,85.963 661.061,82.77 665,82.77 C668.939,82.77 672.133,85.963 672.135,89.902 L672.135,107.432 C672.136,109.982 670.777,112.339 668.569,113.614 C666.36,114.89 663.64,114.89 661.432,113.614 C659.223,112.339 657.864,109.982 657.865,107.432 L657.865,89.902 Z" />
            <path d="M647.469,138.988 C645.533,138.988 643.963,140.557 643.963,142.494 C643.963,144.43 645.533,146 647.469,146 L682.531,146 C684.467,146 686.037,144.43 686.037,142.494 C686.037,140.557 684.467,138.988 682.531,138.988 L668.506,138.988 L668.506,135.264 C682.531,133.496 693.049,121.568 693.049,107.433 C693.049,105.496 691.479,103.926 689.543,103.926 C687.607,103.926 686.037,105.496 686.037,107.433 C686.037,119.051 676.618,128.469 665,128.469 C653.382,128.469 643.963,119.051 643.963,107.433 C643.963,105.496 642.393,103.926 640.457,103.926 C638.521,103.926 636.951,105.496 636.951,107.433 C636.951,121.568 647.469,133.495 661.493,135.264 L661.493,138.988 L647.469,138.988 Z" />
        </g>
    </g>
</svg>