<svg width="16" height="16" viewBox="0 0 16 16" fill="none" xmlns="http://www.w3.org/2000/svg">
<g id="Icon">
<path id="Vector 7" d="M10.6763 15.5H5.32374C3.76423 15.5 2.5 14.2358 2.5 12.6763C2.5 11.6429 3.06442 10.6921 3.97158 10.1973L8 7.99997L3.97159 5.80268C3.06443 5.30787 2.5 4.35706 2.5 3.32373C2.5 1.76423 3.76423 0.5 5.32373 0.5H10.6763C12.2358 0.5 13.5 1.76422 13.5 3.32372C13.5 4.35704 12.9356 5.30784 12.0284 5.80265L8 7.99997L12.0284 10.1973C12.9356 10.6921 13.5 11.6429 13.5 12.6763C13.5 14.2358 12.2358 15.5 10.6763 15.5Z" fill="#CCDAFF"/>
<path id="Subtract" d="M8 15.5H10.6763C12.2358 15.5 13.5 14.2358 13.5 12.6763C13.5 11.6429 12.9356 10.6921 12.0284 10.1973L8 7.99997L12.0284 5.80265C12.9356 5.30784 13.5 4.35704 13.5 3.32372C13.5 1.76422 12.2358 0.5 10.6763 0.5H8V7.99997V15.5Z" fill="#8FABF9"/>
<path id="Union" fill-rule="evenodd" clip-rule="evenodd" d="M5.9323 4.96616L7.99998 6L10.0677 4.96616C10.549 4.72549 10.3778 4 9.8396 4H6.16038C5.62222 4 5.45096 4.72548 5.9323 4.96616ZM9.50183 12.2537L13 14L11.9375 15.1875L8.00002 15.5L4.00002 15.125L3 14L6.48313 12.2556C7.43298 11.78 8.55137 11.7792 9.50183 12.2537Z" fill="#557FF3"/>
<path id="Subtract_2" fill-rule="evenodd" clip-rule="evenodd" d="M8 15.5L8.00002 15.5L11.9375 15.1875L13 14L9.50183 12.2537C9.02897 12.0177 8.51455 11.8992 8 11.8984V15.5ZM8 5.99999L10.0677 4.96616C10.549 4.72549 10.3778 4 9.8396 4H8V5.99999Z" fill="#3969EF"/>
<path id="Vector 3 (Stroke)" fill-rule="evenodd" clip-rule="evenodd" d="M2 3.32373C2 1.48809 3.48809 0 5.32373 0H10.6763C12.5119 0 14 1.48808 14 3.32372C14 4.54002 13.3356 5.65917 12.2678 6.2416L9.04416 7.99998L12.2678 9.75837C13.3356 10.3408 14 11.46 14 12.6763C14 14.5119 12.5119 16 10.6763 16H5.32374C3.48809 16 2 14.5119 2 12.6763C2 11.46 2.66437 10.3408 3.73215 9.75837L6.95584 7.99998L3.73217 6.24163C2.66438 5.6592 2 4.54004 2 3.32373ZM8 7.43043L11.789 5.3637C12.5355 4.95651 13 4.17407 13 3.32372C13 2.04037 11.9596 1 10.6763 1H5.32373C4.04037 1 3 2.04037 3 3.32373C3 4.17409 3.46449 4.95654 4.21102 5.36373L8 7.43043ZM8 8.56952L4.211 10.6363C3.46448 11.0435 3 11.8259 3 12.6763C3 13.9596 4.04037 15 5.32374 15H10.6763C11.9596 15 13 13.9596 13 12.6763C13 11.8259 12.5355 11.0435 11.789 10.6363L8 8.56952Z" fill="url(#paint0_linear_23_4406)"/>
</g>
<defs>
<linearGradient id="paint0_linear_23_4406" x1="8" y1="0.5" x2="8" y2="15.5" gradientUnits="userSpaceOnUse">
<stop stop-color="#3969EF"/>
<stop offset="1" stop-color="#1E42A4"/>
</linearGradient>
</defs>
</svg>
