<svg width="16" height="16" viewBox="0 0 16 16" fill="none" xmlns="http://www.w3.org/2000/svg">
<g id="Icon">
<g id="Vector">
<path fill-rule="evenodd" clip-rule="evenodd" d="M2 3.38164C2 1.51401 3.51401 0 5.38164 0H10.6184C12.486 0 14 1.51401 14 3.38164C14 4.60735 13.3367 5.73711 12.2665 6.33448L9.2824 8L12.2665 9.66552C13.3367 10.2629 14 11.3926 14 12.6184C14 14.486 12.486 16 10.6184 16H5.38164C3.51401 16 2 14.486 2 12.6184C2 11.3926 2.66325 10.2629 3.73354 9.66552L6.7176 8L3.73354 6.33448C2.66325 5.73711 2 4.60735 2 3.38164ZM8 7.28424L11.6572 5.24299C12.3319 4.86643 12.75 4.15428 12.75 3.38164C12.75 2.20437 11.7956 1.25 10.6184 1.25H5.38164C4.20437 1.25 3.25 2.20437 3.25 3.38164C3.25 4.15428 3.66809 4.86643 4.34275 5.24298L8 7.28424ZM8 8.71576L4.34275 10.757C3.66809 11.1336 3.25 11.8457 3.25 12.6184C3.25 13.7956 4.20437 14.75 5.38164 14.75H10.6184C11.7956 14.75 12.75 13.7956 12.75 12.6184C12.75 11.8457 12.3319 11.1336 11.6572 10.757L8 8.71576Z" fill="black" fill-opacity="0.84"/>
<path d="M12.8125 14.1875L9.63817 12.4178C8.61507 11.8474 7.36938 11.8483 6.34708 12.4201L3.1875 14.1875L4 15.125L8 15.5L11.9375 15.1875L12.8125 14.1875Z" fill="black" fill-opacity="0.84"/>
<path d="M7.99998 6L6.1674 4.9528C5.71332 4.69333 5.89744 4 6.42043 4H9.57955C10.1025 4 10.2867 4.69333 9.83258 4.95281L7.99998 6Z" fill="black" fill-opacity="0.84"/>
</g>
</g>
</svg>
