<svg width="12" height="12" viewBox="0 0 12 12" fill="none" xmlns="http://www.w3.org/2000/svg">
<g opacity="0.9" clip-path="url(#clip0_94_1713)">
<path d="M8.125 3.875C8.125 2.7014 7.1736 1.75 6 1.75C4.82639 1.75 3.875 2.7014 3.875 3.875V6.875C3.875 7.49632 4.37868 8 5 8H7C7.62132 8 8.125 7.49632 8.125 6.875V3.875ZM8.875 6.875C8.875 7.91053 8.03553 8.75 7 8.75H5C3.96447 8.75 3.125 7.91053 3.125 6.875V3.875C3.125 2.28718 4.41218 1 6 1C7.58782 1 8.875 2.28718 8.875 3.875V6.875Z" fill="#783B13"/>
<path d="M2 6.375C2 5.54657 2.67157 4.875 3.5 4.875H8.5C9.32843 4.875 10 5.54657 10 6.375V9.375C10 10.2034 9.32843 10.875 8.5 10.875H3.5C2.67157 10.875 2 10.2034 2 9.375V6.375Z" fill="#FFC95C"/>
<path d="M9.625 6.375C9.625 5.75368 9.12132 5.25 8.5 5.25H3.5C2.87868 5.25 2.375 5.75368 2.375 6.375V9.375C2.375 9.99632 2.87868 10.5 3.5 10.5H8.5C9.12132 10.5 9.625 9.99632 9.625 9.375V6.375ZM10.375 9.375C10.375 10.4105 9.53553 11.25 8.5 11.25H3.5C2.46447 11.25 1.625 10.4105 1.625 9.375V6.375C1.625 5.33947 2.46447 4.5 3.5 4.5H8.5C9.53553 4.5 10.375 5.33947 10.375 6.375V9.375Z" fill="#B66A1F"/>
<path d="M6.51612 5.22901C6.60765 5.23104 6.69948 5.23334 6.79103 5.23585C6.83456 5.23709 6.8771 5.25356 6.90919 5.2837C6.94128 5.31384 6.96046 5.35505 6.96241 5.39845C6.96433 5.44189 6.94878 5.4847 6.91944 5.51759C6.89011 5.55048 6.84899 5.57064 6.80568 5.57569C6.71478 5.58626 6.62364 5.59637 6.53273 5.60645C5.49487 5.72157 4.45568 5.80545 3.41505 5.85792C3.35061 5.86141 3.28825 5.87863 3.23146 5.90772C3.10497 5.97221 3.00731 6.09211 2.97316 6.23731C2.92173 6.48964 2.86297 6.74112 2.7964 6.99122C2.77276 7.08003 2.74822 7.1688 2.72267 7.25733C2.70985 7.30148 2.68318 7.34172 2.64503 7.36866C2.60692 7.39558 2.5607 7.407 2.51564 7.4004C2.47053 7.39377 2.42966 7.36931 2.40089 7.33253C2.37209 7.29573 2.35795 7.24961 2.35841 7.20362C2.35943 7.11152 2.36183 7.01957 2.36476 6.92774C2.37301 6.66907 2.38873 6.41124 2.41212 6.15479C2.4441 5.82734 2.65538 5.51824 2.9546 5.36768C3.08854 5.29891 3.23834 5.2597 3.38819 5.25391C4.42946 5.21434 5.47209 5.20593 6.51612 5.22901Z" fill="#FFEAB8"/>
<path d="M6 6.375C5.44772 6.375 5 6.82272 5 7.375C5 7.66308 5.12293 7.92153 5.31787 8.104L5.15527 8.75391C5.07651 9.06942 5.3154 9.375 5.64062 9.375H6.35938C6.6846 9.375 6.92349 9.06942 6.84473 8.75391L6.68262 8.104C6.8774 7.92154 7 7.66296 7 7.375C7 6.82272 6.55228 6.375 6 6.375Z" fill="#783B13"/>
</g>
<defs>
<clipPath id="clip0_94_1713">
<rect width="12" height="12" fill="white"/>
</clipPath>
</defs>
</svg>
