<svg width="16" height="16" viewBox="0 0 16 16" fill="none" xmlns="http://www.w3.org/2000/svg">
<g id="Icon" clip-path="url(#clip0_8_5737)">
<g id="Shape">
<path d="M8.52037 0.0169997C8.47371 0.00588457 8.42503 0 8.37498 0C8.0298 0 7.74997 0.279822 7.74997 0.625V3.375C7.74997 3.72018 8.0298 4 8.37498 4C8.72015 4 8.99998 3.72018 8.99998 3.375V1.32454C10.116 1.49171 11.1756 1.93662 12.0796 2.62244C13.1407 3.42737 13.9399 4.52819 14.3766 5.78633C14.8134 7.04447 14.8683 8.4037 14.5342 9.69293C14.2002 10.9822 13.4923 12.1438 12.4996 13.0316C11.5068 13.9194 10.2737 14.4936 8.95528 14.6821C7.63689 14.8706 6.2922 14.6649 5.09047 14.0908C3.88875 13.5168 2.88369 12.6 2.20181 11.456C1.51994 10.312 1.19171 8.9919 1.25846 7.66178C1.27575 7.31703 1.01031 7.02354 0.665563 7.00624C0.320819 6.98894 0.0273253 7.25439 0.0100266 7.59913C-0.0690769 9.17558 0.319929 10.7402 1.12808 12.096C1.93623 13.4519 3.12741 14.5384 4.55168 15.2187C5.97594 15.8991 7.56965 16.1429 9.13219 15.9195C10.6947 15.6961 12.1563 15.0155 13.3328 13.9633C14.5094 12.9111 15.3484 11.5344 15.7443 10.0064C16.1402 8.47844 16.0752 6.8675 15.5575 5.37638C15.0398 3.88525 14.0927 2.58058 12.8351 1.62659C11.5856 0.678607 10.0851 0.118996 8.52037 0.0169997Z" fill="black" fill-opacity="0.9"/>
<path d="M4.58734 0.764456C4.89954 0.61721 5.27199 0.750928 5.41923 1.06312C5.56648 1.37532 5.43276 1.74777 5.12057 1.89502C4.94134 1.97955 4.76648 2.07166 4.59639 2.17097C4.29831 2.34502 3.91557 2.24447 3.74152 1.94638C3.56747 1.6483 3.66803 1.26556 3.96611 1.09151C4.16771 0.973801 4.37495 0.864631 4.58734 0.764456Z" fill="black" fill-opacity="0.9"/>
<path d="M1.36867 3.52504C1.56175 3.23892 1.95022 3.16349 2.23635 3.35657C2.52247 3.54965 2.5979 3.93813 2.40482 4.22425C2.29464 4.38752 2.19134 4.55601 2.09533 4.72935C1.92807 5.0313 1.54771 5.14049 1.24576 4.97324C0.943808 4.80598 0.834617 4.42561 1.00187 4.12366C1.11566 3.91824 1.23809 3.71855 1.36867 3.52504Z" fill="black" fill-opacity="0.9"/>
<path d="M2.99997 7.625C2.99997 7.27982 3.2798 7 3.62497 7H8.37498C8.72015 7 8.99998 7.27982 8.99998 7.625C8.99998 7.97018 8.72015 8.25 8.37498 8.25H3.62497C3.2798 8.25 2.99997 7.97018 2.99997 7.625Z" fill="black" fill-opacity="0.9"/>
</g>
</g>
<defs>
<clipPath id="clip0_8_5737">
<rect width="16" height="16" fill="white"/>
</clipPath>
</defs>
</svg>
