<svg width="16" height="16" viewBox="0 0 16 16" fill="none" xmlns="http://www.w3.org/2000/svg">
<path d="M13.4517 0.000976562C13.8495 -0.00134229 14.2485 0.147741 14.5513 0.437012L14.5518 0.436523C14.8667 0.727463 15.0536 1.15505 15.0312 1.60791V7.28369C14.0758 6.48264 12.8444 6 11.5 6C8.46243 6 6 8.46243 6 11.5C6 13.3452 6.90949 14.9769 8.30371 15.9746C8.21636 15.9897 8.12275 16 8.02393 16C7.69174 16 7.42547 15.8896 7.27441 15.8188C7.19877 15.7834 7.12405 15.7443 7.08252 15.7227C7.03194 15.6963 7.00933 15.6851 6.99463 15.6787C6.77438 15.5835 6.44169 15.3983 6.06738 15.1831C5.216 14.6936 4.34482 14.1365 3.5542 13.4131H3.55371C2.67714 12.6613 1.8774 11.6921 1.41748 10.5073L1.41797 10.5068C1.16843 9.89957 1.03689 9.25138 1.0332 8.5957V1.57764L1.03613 1.49805C1.05783 1.10086 1.2294 0.72901 1.51221 0.454102L1.5127 0.455078C1.81612 0.151108 2.22446 -0.00427184 2.63086 0.000976562V0.000488281H13.4517V0.000976562Z" fill="#045EB2"/>
<path d="M13.4517 1.00062C13.6066 0.998125 13.7614 1.05827 13.873 1.17152C13.9839 1.27391 14.0462 1.4269 14.0312 1.58167V6.61732C13.2734 6.22365 12.413 6.00013 11.5 6.00013C8.46243 6.00013 6 8.46256 6 11.5001C6.00002 12.6066 6.32787 13.636 6.89014 14.4987C6.79236 14.4441 6.68333 14.3843 6.56543 14.3165C5.73915 13.8414 4.94073 13.3267 4.229 12.6754C3.4315 11.9968 2.73905 11.1488 2.34961 10.1456C2.14371 9.65136 2.03619 9.12331 2.0332 8.58997V1.58167C2.03378 1.42779 2.09715 1.28031 2.20898 1.17152C2.3187 1.05535 2.47547 0.994878 2.63086 1.00062H13.4517Z" fill="#045EB2"/>
<path d="M13.4516 1.00049C13.6065 0.998037 13.7619 1.05818 13.8735 1.17139C13.9842 1.27378 14.0462 1.42693 14.0312 1.58155V6.61719C13.7146 6.45271 13.3802 6.31826 13.0312 6.21729V2.00049H7.99999V7.25684C6.77843 8.26563 6 9.79202 6 11.5C6.00002 12.6063 6.328 13.6355 6.89013 14.4981C6.79247 14.4436 6.68355 14.384 6.56591 14.3164C5.73974 13.8413 4.94115 13.3265 4.22949 12.6753C3.43202 11.9967 2.73957 11.1486 2.3501 10.1455C2.14423 9.65131 2.03622 9.1231 2.0332 8.58985V1.58155C2.03379 1.4276 2.09754 1.28019 2.20947 1.17139C2.31917 1.05526 2.47551 0.994778 2.63086 1.00049H13.4516Z" fill="white"/>
<path d="M16 11.5C16 13.9853 13.9853 16 11.5 16C9.01472 16 7 13.9853 7 11.5C7 9.01472 9.01472 7 11.5 7C13.9853 7 16 9.01472 16 11.5Z" fill="black"/>
<path d="M8.5 14.9531C8.5 14.9145 8.54585 14.8938 8.5752 14.9189C8.60716 14.9464 8.58749 14.9999 8.54541 15C8.52057 15 8.50007 14.9799 8.5 14.9551V14.9531ZM11.5 8C12.6046 8 13.5 8.89543 13.5 10V11H14C14.2761 11 14.5 11.2239 14.5 11.5V13.1636C14.5 13.2545 14.4757 13.3445 14.4258 13.4204C13.8002 14.3717 12.7237 15 11.5 15C10.2763 15 9.19983 14.3717 8.57422 13.4204C8.52428 13.3445 8.5 13.2545 8.5 13.1636V11.5C8.5 11.2239 8.72386 11 9 11H9.5V10C9.5 8.89543 10.3954 8 11.5 8ZM14.4248 14.9189C14.4542 14.8938 14.5 14.9145 14.5 14.9531V14.9551C14.4999 14.9799 14.4794 15 14.4546 15C14.4125 14.9999 14.3928 14.9464 14.4248 14.9189ZM11.5 9C10.9477 9 10.5 9.44772 10.5 10V11H12.5V10C12.5 9.44772 12.0523 9 11.5 9Z" fill="white"/>
<path d="M11 13.5V12.5C11 12.2239 11.2239 12 11.5 12C11.7761 12 12 12.2239 12 12.5V13.5C12 13.7761 11.7761 14 11.5 14C11.2239 14 11 13.7761 11 13.5Z" fill="black"/>
</svg>
