<?xml version="1.0" encoding="UTF-8"?>
<svg height="600" width="800" xmlns="http://www.w3.org/2000/svg" xmlns:xlink="http://www.w3.org/1999/xlink">
    <g id="Notes" font-family="'LucidaGrande', 'Lucida Grande', sans-serif" font-size="13">
        <rect fill="white" height="600.0" width="800.0" x="0.0" y="0.0" />
        <g font-size="13">
            <text x="18.0" y="176.0">Small</text>
            <text x="18.0" y="376.0">Medium</text>
            <text x="18.0" y="576.0">Large</text>
        </g>
        <g font-size="9">
            <text x="250.0" y="30.0">Ultralight</text>
            <text x="450.0" y="30.0">Regular</text>
            <text x="650.0" y="30.0">Black</text>
            <text id="template-version" fill="#505050" text-anchor="end" x="785.0" y="575.0">Template v.3.0</text>
            <a href="https://wangchujiang.com/#/app">
                <text fill="#505050" text-anchor="end" x="785.0" y="590.0">https://wangchujiang.com/#/app</text>
            </a>
        </g>
    </g>
    <g id="Guides" stroke="rgb(39, 170, 225)" stroke-width="0.5">
        <path id="Capline-S" d="M18,76 l800,0" />
        <path id="H-reference" d="M85,145.755 L87.685,145.755 L113.369,79.287 L114.052,79.287 L114.052,76 L112.148,76 L85,145.755 Z M95.693,121.536 L130.996,121.536 L130.263,119.313 L96.474,119.313 L95.693,121.536 Z M139.15,145.755 L141.787,145.755 L114.638,76 L113.466,76 L113.466,79.287 L139.15,145.755 Z" stroke="none" />
        <path id="Baseline-S" d="M18,146 l800,0" />
        <path id="left-margin-Ultralight-S" d="M216.092,56 l0,110" />
        <path id="right-margin-Ultralight-S" d="M313.908,56 l0,110" />
        <path id="left-margin-Regular-S" d="M416.092,56 l0,110" />
        <path id="right-margin-Regular-S" d="M513.908,56 l0,110" />
        <path id="left-margin-Black-S" d="M616.092,56 l0,110" />
        <path id="right-margin-Black-S" d="M713.908,56 l0,110" />
        <path id="Capline-M" d="M18,276 l800,0" />
        <path id="Baseline-M" d="M18,346 l800,0" />
        <path id="Capline-L" d="M18,476 l800,0" />
        <path id="Baseline-L" d="M18,546 l800,0" />
    </g>
    <g id="Symbols">
        <g id="Ultralight-S">
            <path d="M241.702,76.004 C237.566,75.991 233.595,77.626 230.667,80.546 C227.738,83.466 226.092,87.431 226.092,91.567 L226.092,130.437 C226.092,134.564 227.731,138.523 230.65,141.442 C233.569,144.36 237.527,146 241.655,146 L288.345,146 C292.473,146 296.431,144.36 299.35,141.442 C302.269,138.523 303.908,134.564 303.908,130.437 L303.908,91.707 C303.908,83.13 296.969,76.17 288.392,76.144 L241.702,76 Z M237.219,85.167 C238.527,84.256 240.085,83.771 241.678,83.778 L288.368,83.922 C289.908,83.925 291.411,84.387 292.687,85.249 L270.148,105.138 C267.206,107.733 262.794,107.733 259.852,105.138 L237.219,85.171 Z M233.873,92.598 L254.705,110.975 C260.588,116.164 269.412,116.164 275.295,110.975 L296.127,92.598 L296.127,130.437 C296.127,132.5 295.307,134.48 293.847,135.939 C292.388,137.398 290.409,138.218 288.345,138.218 L241.655,138.218 C239.591,138.218 237.612,137.398 236.153,135.939 C234.693,134.48 233.873,132.5 233.873,130.437 L233.873,92.598 Z" />
        </g>
        <g id="Regular-S">
            <path d="M441.702,76.004 C437.566,75.991 433.595,77.626 430.667,80.546 C427.738,83.466 426.092,87.431 426.092,91.567 L426.092,130.437 C426.092,134.564 427.731,138.523 430.65,141.442 C433.569,144.36 437.527,146 441.655,146 L488.345,146 C492.473,146 496.431,144.36 499.35,141.442 C502.269,138.523 503.908,134.564 503.908,130.437 L503.908,91.707 C503.908,83.13 496.969,76.17 488.392,76.144 L441.702,76 Z M437.219,85.167 C438.527,84.256 440.085,83.771 441.678,83.778 L488.368,83.922 C489.908,83.925 491.411,84.387 492.687,85.249 L470.148,105.138 C467.206,107.733 462.794,107.733 459.852,105.138 L437.219,85.171 Z M433.873,92.598 L454.705,110.975 C460.588,116.164 469.412,116.164 475.295,110.975 L496.127,92.598 L496.127,130.437 C496.127,132.5 495.307,134.48 493.847,135.939 C492.388,137.398 490.409,138.218 488.345,138.218 L441.655,138.218 C439.591,138.218 437.612,137.398 436.153,135.939 C434.693,134.48 433.873,132.5 433.873,130.437 L433.873,92.598 Z" />
        </g>
        <g id="Black-S">
            <path d="M641.702,76.004 C637.566,75.991 633.595,77.626 630.667,80.546 C627.738,83.466 626.092,87.431 626.092,91.567 L626.092,130.437 C626.092,134.564 627.731,138.523 630.65,141.442 C633.569,144.36 637.527,146 641.655,146 L688.345,146 C692.473,146 696.431,144.36 699.35,141.442 C702.269,138.523 703.908,134.564 703.908,130.437 L703.908,91.707 C703.908,83.13 696.969,76.17 688.392,76.144 L641.702,76 Z M637.219,85.167 C638.527,84.256 640.085,83.771 641.678,83.778 L688.368,83.922 C689.908,83.925 691.411,84.387 692.687,85.249 L670.148,105.138 C667.206,107.733 662.794,107.733 659.852,105.138 L637.219,85.171 Z M633.873,92.598 L654.705,110.975 C660.588,116.164 669.412,116.164 675.295,110.975 L696.127,92.598 L696.127,130.437 C696.127,132.5 695.307,134.48 693.847,135.939 C692.388,137.398 690.409,138.218 688.345,138.218 L641.655,138.218 C639.591,138.218 637.612,137.398 636.153,135.939 C634.693,134.48 633.873,132.5 633.873,130.437 L633.873,92.598 Z" />
        </g>
    </g>
</svg>