<?xml version="1.0" encoding="UTF-8"?>
<svg height="600" width="800" xmlns="http://www.w3.org/2000/svg" xmlns:xlink="http://www.w3.org/1999/xlink">
    <g id="Notes" font-family="'LucidaGrande', 'Lucida Grande', sans-serif" font-size="13">
        <rect fill="white" height="600.0" width="800.0" x="0.0" y="0.0" />
        <g font-size="13">
            <text x="18.0" y="176.0">Small</text>
            <text x="18.0" y="376.0">Medium</text>
            <text x="18.0" y="576.0">Large</text>
        </g>
        <g font-size="9">
            <text x="250.0" y="30.0">Ultralight</text>
            <text x="450.0" y="30.0">Regular</text>
            <text x="650.0" y="30.0">Black</text>
            <text id="template-version" fill="#505050" text-anchor="end" x="785.0" y="575.0">Template v.3.0</text>
            <a href="https://wangchujiang.com/#/app">
                <text fill="#505050" text-anchor="end" x="785.0" y="590.0">https://wangchujiang.com/#/app</text>
            </a>
        </g>
    </g>
    <g id="Guides" stroke="rgb(39, 170, 225)" stroke-width="0.5">
        <path id="Capline-S" d="M18,76 l800,0" />
        <path id="H-reference" d="M85,145.755 L87.685,145.755 L113.369,79.287 L114.052,79.287 L114.052,76 L112.148,76 L85,145.755 Z M95.693,121.536 L130.996,121.536 L130.263,119.313 L96.474,119.313 L95.693,121.536 Z M139.15,145.755 L141.787,145.755 L114.638,76 L113.466,76 L113.466,79.287 L139.15,145.755 Z" stroke="none" />
        <path id="Baseline-S" d="M18,146 l800,0" />
        <path id="left-margin-Ultralight-S" d="M220,56 l0,110" />
        <path id="right-margin-Ultralight-S" d="M310,56 l0,110" />
        <path id="left-margin-Regular-S" d="M420,56 l0,110" />
        <path id="right-margin-Regular-S" d="M510,56 l0,110" />
        <path id="left-margin-Black-S" d="M620,56 l0,110" />
        <path id="right-margin-Black-S" d="M710,56 l0,110" />
        <path id="Capline-M" d="M18,276 l800,0" />
        <path id="Baseline-M" d="M18,346 l800,0" />
        <path id="Capline-L" d="M18,476 l800,0" />
        <path id="Baseline-L" d="M18,546 l800,0" />
    </g>
    <g id="Symbols">
        <g id="Ultralight-S">
            <path d="M284.242,100.477 C291.012,100.477 296.498,105.963 296.498,112.733 L296.498,124.989 C297.427,124.989 298.318,125.358 298.974,126.015 C299.631,126.672 300,127.563 300,128.491 L300,142.498 C300,143.427 299.631,144.318 298.974,144.974 C298.318,145.631 297.427,146 296.498,146 L271.986,146 C271.057,146 270.167,145.631 269.51,144.974 C268.853,144.318 268.484,143.427 268.484,142.498 L268.484,128.491 C268.484,127.563 268.853,126.672 269.51,126.015 C270.167,125.358 271.057,124.989 271.986,124.989 L291.246,124.989 L291.246,112.733 C291.246,108.865 288.11,105.73 284.242,105.73 C280.374,105.73 277.239,108.865 277.239,112.733 L277.239,116.235 C277.239,116.699 277.054,117.145 276.726,117.473 C276.397,117.802 275.952,117.986 275.488,117.986 L273.737,117.986 C273.272,117.986 272.827,117.802 272.499,117.473 C272.17,117.145 271.986,116.699 271.986,116.235 L271.986,112.733 C271.986,105.963 277.472,100.477 284.242,100.477 Z M264.982,76 C278.761,76 290.678,83.965 296.382,95.544 C297.108,97.015 294.565,98.495 293.153,97.657 C293.022,97.58 292.889,97.504 292.756,97.431 C288.938,89.626 282.018,83.783 273.683,81.327 C274.804,82.936 275.773,84.838 276.594,86.946 C277.631,89.601 278.467,92.654 279.088,95.995 C277.741,96.409 276.45,96.985 275.243,97.711 C274.65,94.207 273.819,91.069 272.789,88.434 C271.682,85.604 270.394,83.461 269.021,82.06 C267.667,80.678 266.32,80.085 264.982,80.085 C263.645,80.085 262.298,80.678 260.944,82.058 C259.571,83.463 258.282,85.604 257.176,88.431 C254.967,94.085 253.672,102.051 253.672,110.982 L253.672,111.246 C258.033,111.512 262.402,111.623 266.771,111.58 C266.747,111.963 266.733,112.346 266.733,112.733 L266.733,115.668 C262.412,115.707 258.091,115.599 253.777,115.343 C254.127,122.494 255.336,128.818 257.176,133.529 C258.28,136.361 259.571,138.502 260.944,139.905 C261.709,140.684 262.47,141.214 263.231,141.527 L263.231,142.498 C263.231,142.615 263.234,142.729 263.238,142.844 C263.297,144.335 262.228,145.89 260.745,145.71 C243.423,143.619 230,128.869 230,110.982 C230,91.662 245.662,76 264.982,76 Z M234.16,113.154 C235.071,126.236 244.121,137.075 256.282,140.638 C255.161,139.027 254.195,137.124 253.371,135.019 C251.286,129.68 250.009,122.723 249.675,115.059 C244.479,114.637 239.303,114.002 234.16,113.154 Z M256.282,81.327 C244.058,84.906 234.977,95.839 234.146,109.01 C239.263,109.872 244.415,110.52 249.587,110.95 C249.589,101.703 250.927,93.208 253.371,86.946 C254.195,84.838 255.161,82.936 256.282,81.327 Z" />
        </g>
        <g id="Regular-S">
            <path d="M484.242,100.477 C491.012,100.477 496.498,105.963 496.498,112.733 L496.498,124.989 C497.427,124.989 498.318,125.358 498.974,126.015 C499.631,126.672 500,127.563 500,128.491 L500,142.498 C500,143.427 499.631,144.318 498.974,144.974 C498.318,145.631 497.427,146 496.498,146 L471.986,146 C471.057,146 470.167,145.631 469.51,144.974 C468.853,144.318 468.484,143.427 468.484,142.498 L468.484,128.491 C468.484,127.563 468.853,126.672 469.51,126.015 C470.167,125.358 471.057,124.989 471.986,124.989 L491.246,124.989 L491.246,112.733 C491.246,108.865 488.11,105.73 484.242,105.73 C480.374,105.73 477.239,108.865 477.239,112.733 L477.239,116.235 C477.239,116.699 477.054,117.145 476.726,117.473 C476.397,117.802 475.952,117.986 475.488,117.986 L473.737,117.986 C473.273,117.986 472.827,117.802 472.499,117.473 C472.17,117.145 471.986,116.699 471.986,116.235 L471.986,112.733 C471.986,105.963 477.472,100.477 484.242,100.477 Z M464.983,76 C478.761,76 490.678,83.965 496.382,95.544 C497.108,97.015 494.565,98.495 493.153,97.657 C493.022,97.58 492.889,97.504 492.756,97.431 C488.938,89.626 482.018,83.783 473.683,81.327 C474.804,82.936 475.773,84.838 476.594,86.946 C477.631,89.601 478.467,92.654 479.088,95.995 C477.741,96.409 476.45,96.985 475.243,97.711 C474.65,94.207 473.819,91.069 472.789,88.434 C471.682,85.604 470.394,83.461 469.021,82.06 C467.667,80.678 466.32,80.085 464.982,80.085 C463.645,80.085 462.298,80.678 460.944,82.058 C459.571,83.463 458.282,85.604 457.176,88.431 C454.967,94.085 453.672,102.051 453.672,110.982 L453.672,111.246 C458.033,111.512 462.402,111.623 466.771,111.58 C466.747,111.963 466.733,112.346 466.733,112.733 L466.733,115.668 C462.412,115.707 458.091,115.599 453.777,115.343 C454.127,122.494 455.336,128.818 457.176,133.529 C458.28,136.361 459.571,138.502 460.944,139.905 C461.709,140.684 462.47,141.214 463.231,141.527 L463.231,142.498 C463.231,142.615 463.234,142.729 463.238,142.844 C463.297,144.335 462.228,145.89 460.745,145.71 C443.423,143.619 430,128.869 430,110.982 C430,91.662 445.662,76 464.983,76 Z M434.16,113.154 C435.071,126.236 444.121,137.075 456.282,140.638 C455.161,139.027 454.195,137.124 453.371,135.019 C451.286,129.68 450.009,122.723 449.675,115.059 C444.48,114.637 439.303,114.002 434.16,113.154 Z M456.282,81.327 C444.058,84.906 434.977,95.839 434.146,109.01 C439.263,109.872 444.415,110.52 449.587,110.95 C449.589,101.703 450.927,93.208 453.371,86.946 C454.195,84.838 455.161,82.936 456.282,81.327 Z" />
        </g>
        <g id="Black-S">
            <path d="M684.242,100.477 C691.012,100.477 696.498,105.963 696.498,112.733 L696.498,124.989 C697.427,124.989 698.318,125.358 698.974,126.015 C699.631,126.672 700,127.563 700,128.491 L700,142.498 C700,143.427 699.631,144.318 698.974,144.974 C698.318,145.631 697.427,146 696.498,146 L671.986,146 C671.057,146 670.167,145.631 669.51,144.974 C668.853,144.318 668.484,143.427 668.484,142.498 L668.484,128.491 C668.484,127.563 668.853,126.672 669.51,126.015 C670.167,125.358 671.057,124.989 671.986,124.989 L691.246,124.989 L691.246,112.733 C691.246,108.865 688.11,105.73 684.242,105.73 C680.374,105.73 677.239,108.865 677.239,112.733 L677.239,116.235 C677.239,116.699 677.054,117.145 676.726,117.473 C676.397,117.802 675.952,117.986 675.488,117.986 L673.737,117.986 C673.273,117.986 672.827,117.802 672.499,117.473 C672.17,117.145 671.986,116.699 671.986,116.235 L671.986,112.733 C671.986,105.963 677.472,100.477 684.242,100.477 Z M664.982,76 C678.761,76 690.678,83.965 696.382,95.544 C697.108,97.015 694.565,98.495 693.153,97.657 C693.022,97.58 692.889,97.504 692.756,97.431 C688.938,89.626 682.018,83.783 673.683,81.327 C674.804,82.936 675.773,84.838 676.594,86.946 C677.631,89.601 678.467,92.654 679.088,95.995 C677.741,96.409 676.45,96.985 675.243,97.711 C674.65,94.207 673.819,91.069 672.789,88.434 C671.682,85.604 670.394,83.461 669.021,82.06 C667.667,80.678 666.32,80.085 664.982,80.085 C663.645,80.085 662.298,80.678 660.944,82.058 C659.571,83.463 658.282,85.604 657.176,88.431 C654.967,94.085 653.672,102.051 653.672,110.982 L653.672,111.246 C658.033,111.512 662.402,111.623 666.771,111.58 C666.747,111.963 666.734,112.346 666.734,112.733 L666.734,115.668 C662.412,115.707 658.091,115.599 653.777,115.343 C654.127,122.494 655.336,128.818 657.176,133.529 C658.28,136.361 659.571,138.502 660.944,139.905 C661.709,140.684 662.47,141.214 663.231,141.527 L663.231,142.498 C663.231,142.615 663.234,142.729 663.238,142.844 C663.297,144.335 662.228,145.89 660.745,145.71 C643.423,143.619 630,128.869 630,110.982 C630,91.662 645.662,76 664.982,76 Z M634.16,113.154 C635.071,126.236 644.121,137.075 656.282,140.638 C655.161,139.027 654.195,137.124 653.371,135.019 C651.286,129.68 650.009,122.723 649.675,115.059 C644.479,114.637 639.303,114.002 634.16,113.154 Z M656.282,81.327 C644.058,84.906 634.977,95.839 634.146,109.01 C639.263,109.872 644.415,110.52 649.587,110.95 C649.589,101.703 650.927,93.208 653.371,86.946 C654.195,84.838 655.161,82.936 656.282,81.327 Z" />
        </g>
    </g>
</svg>