<svg width="16" height="16" viewBox="0 0 16 16" fill="none" xmlns="http://www.w3.org/2000/svg">
<g clip-path="url(#clip0_9556_104556)">
<path d="M0 11V5C9.66449e-08 2.79086 1.79086 1 4 1H4.23352C4.7844 1.00001 5.30745 1.24228 5.6637 1.66248L7.72668 4.09583C7.83753 4.22657 7.88985 4.3971 7.87134 4.5675C7.85282 4.73792 7.76513 4.89331 7.62878 4.99719L5.59741 6.5448L7.36035 8.16479C7.59678 8.38206 7.63016 8.74312 7.4375 9L6.125 10.75C5.91789 11.0261 5.52614 11.0821 5.25 10.875C4.97386 10.6679 4.91789 10.2761 5.125 10L6.09814 8.70239L4.20215 6.96021C4.06595 6.83505 3.9921 6.65596 4.00061 6.47119C4.00913 6.28644 4.0991 6.1149 4.24622 6.00281L6.34741 4.40186L4.71021 2.47083C4.59146 2.33077 4.41714 2.25001 4.23352 2.25H4C2.48122 2.25 1.25 3.48122 1.25 5V11C1.25 12.5188 2.48122 13.75 4 13.75H12.04C13.5588 13.75 14.79 12.5188 14.79 11V5C14.79 3.48123 13.5588 2.25002 12.04 2.25H8.625C8.27982 2.25 8 1.97018 8 1.625C8 1.27982 8.27982 1 8.625 1H12.04C14.2492 1.00002 16.04 2.79087 16.04 5V11C16.04 13.2091 14.2492 15 12.04 15H4C1.79086 15 9.66389e-08 13.2091 0 11Z" fill="black"/>
</g>
<defs>
<clipPath id="clip0_9556_104556">
<rect width="16" height="16" fill="white"/>
</clipPath>
</defs>
</svg>
