<?xml version="1.0" encoding="UTF-8"?>
<svg height="600" width="800" xmlns="http://www.w3.org/2000/svg" xmlns:xlink="http://www.w3.org/1999/xlink">
    <g id="Notes" font-family="'LucidaGrande', 'Lucida Grande', sans-serif" font-size="13">
        <rect fill="white" height="600.0" width="800.0" x="0.0" y="0.0" />
        <g font-size="13">
            <text x="18.0" y="176.0">Small</text>
            <text x="18.0" y="376.0">Medium</text>
            <text x="18.0" y="576.0">Large</text>
        </g>
        <g font-size="9">
            <text x="250.0" y="30.0">Ultralight</text>
            <text x="450.0" y="30.0">Regular</text>
            <text x="650.0" y="30.0">Black</text>
            <text id="template-version" fill="#505050" text-anchor="end" x="785.0" y="575.0">Template v.3.0</text>
            <a href="https://wangchujiang.com/#/app">
                <text fill="#505050" text-anchor="end" x="785.0" y="590.0">https://wangchujiang.com/#/app</text>
            </a>
        </g>
    </g>
    <g id="Guides" stroke="rgb(39, 170, 225)" stroke-width="0.5">
        <path id="Capline-S" d="M18,76 l800,0" />
        <path id="H-reference" d="M85,145.755 L87.685,145.755 L113.369,79.287 L114.052,79.287 L114.052,76 L112.148,76 L85,145.755 Z M95.693,121.536 L130.996,121.536 L130.263,119.313 L96.474,119.313 L95.693,121.536 Z M139.15,145.755 L141.787,145.755 L114.638,76 L113.466,76 L113.466,79.287 L139.15,145.755 Z" stroke="none" />
        <path id="Baseline-S" d="M18,146 l800,0" />
        <path id="left-margin-Ultralight-S" d="M218.721,56 l0,110" />
        <path id="right-margin-Ultralight-S" d="M311.279,56 l0,110" />
        <path id="left-margin-Regular-S" d="M418.721,56 l0,110" />
        <path id="right-margin-Regular-S" d="M511.279,56 l0,110" />
        <path id="left-margin-Black-S" d="M618.721,56 l0,110" />
        <path id="right-margin-Black-S" d="M711.279,56 l0,110" />
        <path id="Capline-M" d="M18,276 l800,0" />
        <path id="Baseline-M" d="M18,346 l800,0" />
        <path id="Capline-L" d="M18,476 l800,0" />
        <path id="Baseline-L" d="M18,546 l800,0" />
    </g>
    <g id="Symbols">
        <g id="Ultralight-S">
            <path d="M256.469,81.308 C259.957,74.231 270.048,74.231 273.532,81.308 L279.106,92.615 C279.404,93.22 279.982,93.64 280.65,93.738 L293.129,95.554 C300.925,96.689 304.04,106.272 298.4,111.775 L289.365,120.597 C288.882,121.068 288.662,121.746 288.775,122.41 L290.909,134.859 C292.237,142.634 284.078,148.558 277.099,144.883 L265.956,139.019 C265.358,138.704 264.643,138.704 264.045,139.019 L252.902,144.879 C245.926,148.554 237.764,142.63 239.092,134.855 L241.226,122.407 C241.339,121.742 241.119,121.065 240.636,120.594 L231.597,111.771 C225.961,106.272 229.076,96.689 236.872,95.554 L249.351,93.738 C250.018,93.641 250.596,93.223 250.895,92.619 L256.469,81.308 Z M266.84,84.605 C266.494,83.906 265.781,83.463 265.001,83.463 C264.22,83.463 263.507,83.906 263.161,84.605 L257.588,95.913 C256.204,98.723 253.525,100.672 250.425,101.124 L237.947,102.937 C237.174,103.049 236.532,103.591 236.29,104.333 C236.049,105.076 236.25,105.891 236.809,106.436 L245.848,115.259 C248.086,117.441 249.108,120.59 248.579,123.671 L246.449,136.12 C246.316,136.89 246.633,137.668 247.264,138.127 C247.896,138.587 248.734,138.647 249.426,138.284 L260.569,132.416 C263.343,130.955 266.658,130.955 269.432,132.416 L280.575,138.28 C281.267,138.644 282.105,138.583 282.737,138.124 C283.368,137.664 283.685,136.886 283.552,136.116 L281.422,123.671 C280.894,120.589 281.915,117.444 284.153,115.259 L293.188,106.436 C293.747,105.891 293.948,105.076 293.707,104.333 C293.465,103.591 292.823,103.049 292.051,102.937 L279.576,101.124 C276.476,100.672 273.797,98.723 272.413,95.913 L266.84,84.605 Z" />
        </g>
        <g id="Regular-S">
            <path d="M456.469,81.308 C459.957,74.231 470.048,74.231 473.532,81.308 L479.106,92.615 C479.404,93.22 479.982,93.64 480.65,93.738 L493.129,95.554 C500.925,96.689 504.04,106.272 498.4,111.775 L489.365,120.597 C488.882,121.068 488.662,121.746 488.775,122.41 L490.909,134.859 C492.237,142.634 484.078,148.558 477.099,144.883 L465.956,139.019 C465.358,138.704 464.643,138.704 464.045,139.019 L452.902,144.879 C445.926,148.554 437.764,142.63 439.092,134.855 L441.226,122.407 C441.339,121.742 441.119,121.065 440.636,120.594 L431.597,111.771 C425.961,106.272 429.076,96.689 436.872,95.554 L449.351,93.738 C450.018,93.641 450.596,93.223 450.895,92.619 L456.469,81.308 Z M466.84,84.605 C466.494,83.906 465.781,83.463 465.001,83.463 C464.22,83.463 463.507,83.906 463.161,84.605 L457.588,95.913 C456.204,98.723 453.525,100.672 450.425,101.124 L437.947,102.937 C437.174,103.049 436.532,103.591 436.29,104.333 C436.049,105.076 436.25,105.891 436.809,106.436 L445.848,115.259 C448.086,117.441 449.108,120.59 448.579,123.671 L446.449,136.12 C446.316,136.89 446.633,137.668 447.264,138.127 C447.896,138.587 448.734,138.647 449.426,138.284 L460.569,132.416 C463.343,130.955 466.658,130.955 469.432,132.416 L480.575,138.28 C481.267,138.644 482.105,138.583 482.737,138.124 C483.368,137.664 483.685,136.886 483.552,136.116 L481.422,123.671 C480.894,120.589 481.915,117.444 484.153,115.259 L493.188,106.436 C493.747,105.891 493.948,105.076 493.707,104.333 C493.465,103.591 492.823,103.049 492.051,102.937 L479.576,101.124 C476.476,100.672 473.797,98.723 472.413,95.913 L466.84,84.605 Z" />
        </g>
        <g id="Black-S">
            <path d="M656.469,81.308 C659.957,74.231 670.048,74.231 673.532,81.308 L679.106,92.615 C679.404,93.22 679.982,93.64 680.65,93.738 L693.129,95.554 C700.925,96.689 704.04,106.272 698.4,111.775 L689.365,120.597 C688.882,121.068 688.662,121.746 688.775,122.41 L690.909,134.859 C692.237,142.634 684.078,148.558 677.099,144.883 L665.956,139.019 C665.358,138.704 664.643,138.704 664.045,139.019 L652.902,144.879 C645.926,148.554 637.764,142.63 639.092,134.855 L641.226,122.407 C641.339,121.742 641.119,121.065 640.636,120.594 L631.597,111.771 C625.961,106.272 629.076,96.689 636.872,95.554 L649.351,93.738 C650.018,93.641 650.596,93.223 650.895,92.619 L656.469,81.308 Z M666.84,84.605 C666.494,83.906 665.781,83.463 665,83.463 C664.22,83.463 663.507,83.906 663.161,84.605 L657.588,95.913 C656.204,98.723 653.525,100.672 650.425,101.124 L637.947,102.937 C637.174,103.049 636.532,103.591 636.29,104.333 C636.049,105.076 636.25,105.891 636.809,106.436 L645.848,115.259 C648.086,117.441 649.109,120.59 648.579,123.671 L646.449,136.12 C646.316,136.89 646.633,137.668 647.264,138.127 C647.896,138.587 648.734,138.647 649.426,138.284 L660.569,132.416 C663.343,130.955 666.658,130.955 669.432,132.416 L680.575,138.28 C681.267,138.644 682.105,138.583 682.737,138.124 C683.368,137.664 683.685,136.886 683.552,136.116 L681.422,123.671 C680.894,120.589 681.915,117.444 684.153,115.259 L693.188,106.436 C693.747,105.891 693.948,105.076 693.707,104.333 C693.465,103.591 692.823,103.049 692.051,102.937 L679.576,101.124 C676.476,100.672 673.797,98.723 672.413,95.913 L666.84,84.605 Z" />
        </g>
    </g>
</svg>