<?xml version="1.0" encoding="UTF-8"?>
<svg height="600" width="800" xmlns="http://www.w3.org/2000/svg" xmlns:xlink="http://www.w3.org/1999/xlink">
    <g id="Notes" font-family="'LucidaGrande', 'Lucida Grande', sans-serif" font-size="13">
        <rect fill="white" height="600.0" width="800.0" x="0.0" y="0.0" />
        <g font-size="13">
            <text x="18.0" y="176.0">Small</text>
            <text x="18.0" y="376.0">Medium</text>
            <text x="18.0" y="576.0">Large</text>
        </g>
        <g font-size="9">
            <text x="250.0" y="30.0">Ultralight</text>
            <text x="450.0" y="30.0">Regular</text>
            <text x="650.0" y="30.0">Black</text>
            <text id="template-version" fill="#505050" text-anchor="end" x="785.0" y="575.0">Template v.3.0</text>
            <a href="https://wangchujiang.com/#/app">
                <text fill="#505050" text-anchor="end" x="785.0" y="590.0">https://wangchujiang.com/#/app</text>
            </a>
        </g>
    </g>
    <g id="Guides" stroke="rgb(39, 170, 225)" stroke-width="0.5">
        <path id="Capline-S" d="M18,76 l800,0" />
        <path id="H-reference" d="M85,145.755 L87.685,145.755 L113.369,79.287 L114.052,79.287 L114.052,76 L112.148,76 L85,145.755 Z M95.693,121.536 L130.996,121.536 L130.263,119.313 L96.474,119.313 L95.693,121.536 Z M139.15,145.755 L141.787,145.755 L114.638,76 L113.466,76 L113.466,79.287 L139.15,145.755 Z" stroke="none" />
        <path id="Baseline-S" d="M18,146 l800,0" />
        <path id="left-margin-Ultralight-S" d="M218.14,56 l0,110" />
        <path id="right-margin-Ultralight-S" d="M311.86,56 l0,110" />
        <path id="left-margin-Regular-S" d="M418.14,56 l0,110" />
        <path id="right-margin-Regular-S" d="M511.86,56 l0,110" />
        <path id="left-margin-Black-S" d="M618.14,56 l0,110" />
        <path id="right-margin-Black-S" d="M711.86,56 l0,110" />
        <path id="Capline-M" d="M18,276 l800,0" />
        <path id="Baseline-M" d="M18,346 l800,0" />
        <path id="Capline-L" d="M18,476 l800,0" />
        <path id="Baseline-L" d="M18,546 l800,0" />
    </g>
    <g id="Symbols">
        <g id="Ultralight-S">
            <path d="M242.928,76.004 C239.011,75.992 235.249,77.54 232.474,80.306 C229.7,83.073 228.14,86.83 228.14,90.748 L228.14,127.57 C228.14,131.481 229.694,135.231 232.459,137.996 C235.224,140.761 238.974,142.314 242.884,142.314 L260.028,142.314 C262.213,142.314 263.588,139.848 262.825,137.802 C262.731,137.551 262.642,137.298 262.556,137.043 C262.147,135.827 261.049,134.942 259.766,134.942 L242.884,134.942 C240.929,134.942 239.054,134.165 237.672,132.783 C236.289,131.4 235.512,129.525 235.512,127.57 L235.512,91.724 L255.247,109.133 C258.827,112.296 263.718,113.527 268.369,112.436 C270.928,109.885 274.03,107.946 277.444,106.763 L294.488,91.724 L294.488,105.447 C294.488,106.564 295.166,107.555 296.157,108.064 L296.637,108.315 C298.778,109.472 301.86,108.075 301.86,105.639 L301.86,90.88 C301.86,82.755 295.285,76.161 287.16,76.136 L242.928,76 Z M291.233,84.765 L269.877,103.608 C267.09,106.066 262.91,106.066 260.123,103.608 L238.682,84.688 C239.922,83.824 241.399,83.365 242.91,83.372 L287.142,83.512 C288.6,83.514 290.024,83.95 291.233,84.765 Z" />
            <path d="M301.86,129.413 C301.86,138.574 294.433,146 285.273,146 C276.112,146 268.686,138.574 268.686,129.413 C268.686,120.253 276.112,112.826 285.273,112.826 C294.433,112.826 301.86,120.253 301.86,129.413 Z M287.116,127.57 L287.116,118.355 L283.43,118.355 L283.43,127.57 L274.215,127.57 L274.215,131.256 L283.43,131.256 L283.43,140.471 L287.116,140.471 L287.116,131.256 L296.331,131.256 L296.331,127.57 L287.116,127.57 Z" />
        </g>
        <g id="Regular-S">
            <path d="M442.928,76.004 C439.011,75.992 435.249,77.54 432.474,80.306 C429.7,83.073 428.14,86.83 428.14,90.748 L428.14,127.57 C428.14,131.481 429.694,135.231 432.459,137.996 C435.224,140.761 438.974,142.314 442.884,142.314 L460.028,142.314 C462.213,142.314 463.588,139.848 462.825,137.802 C462.731,137.551 462.642,137.298 462.556,137.043 C462.147,135.827 461.049,134.942 459.766,134.942 L442.884,134.942 C440.929,134.942 439.054,134.165 437.672,132.783 C436.289,131.4 435.512,129.525 435.512,127.57 L435.512,91.724 L455.247,109.133 C458.827,112.296 463.718,113.527 468.369,112.436 C470.928,109.885 474.03,107.946 477.444,106.763 L494.488,91.724 L494.488,105.447 C494.488,106.564 495.166,107.555 496.157,108.064 L496.637,108.315 C498.778,109.472 501.86,108.075 501.86,105.639 L501.86,90.88 C501.86,82.755 495.285,76.161 487.16,76.136 L442.928,76 Z M491.233,84.765 L469.877,103.608 C467.09,106.066 462.91,106.066 460.123,103.608 L438.682,84.688 C439.922,83.824 441.399,83.365 442.91,83.372 L487.142,83.512 C488.6,83.514 490.024,83.95 491.233,84.765 Z" />
            <path d="M501.86,129.413 C501.86,138.574 494.433,146 485.273,146 C476.112,146 468.686,138.574 468.686,129.413 C468.686,120.253 476.112,112.826 485.273,112.826 C494.433,112.826 501.86,120.253 501.86,129.413 Z M487.116,127.57 L487.116,118.355 L483.43,118.355 L483.43,127.57 L474.215,127.57 L474.215,131.256 L483.43,131.256 L483.43,140.471 L487.116,140.471 L487.116,131.256 L496.331,131.256 L496.331,127.57 L487.116,127.57 Z" />
        </g>
        <g id="Black-S">
            <path d="M642.929,76.004 C639.011,75.992 635.249,77.54 632.474,80.306 C629.7,83.073 628.14,86.83 628.14,90.748 L628.14,127.57 C628.14,131.481 629.694,135.231 632.459,137.996 C635.224,140.761 638.974,142.314 642.884,142.314 L660.028,142.314 C662.213,142.314 663.588,139.848 662.825,137.802 C662.731,137.551 662.642,137.298 662.556,137.043 C662.147,135.827 661.049,134.942 659.766,134.942 L642.884,134.942 C640.929,134.942 639.054,134.165 637.672,132.783 C636.289,131.4 635.512,129.525 635.512,127.57 L635.512,91.724 L655.247,109.133 C658.827,112.296 663.718,113.527 668.369,112.436 C670.928,109.885 674.03,107.946 677.444,106.763 L694.488,91.724 L694.488,105.447 C694.488,106.564 695.166,107.555 696.157,108.064 L696.637,108.315 C698.778,109.472 701.86,108.075 701.86,105.639 L701.86,90.88 C701.86,82.755 695.285,76.161 687.16,76.136 L642.928,76 Z M691.233,84.765 L669.877,103.608 C667.09,106.066 662.91,106.066 660.124,103.608 L638.682,84.688 C639.922,83.824 641.399,83.365 642.91,83.372 L687.142,83.512 C688.6,83.514 690.024,83.95 691.233,84.765 Z" />
            <path d="M701.86,129.413 C701.86,138.574 694.433,146 685.273,146 C676.112,146 668.686,138.574 668.686,129.413 C668.686,120.253 676.112,112.826 685.273,112.826 C694.433,112.826 701.86,120.253 701.86,129.413 Z M687.116,127.57 L687.116,118.355 L683.43,118.355 L683.43,127.57 L674.215,127.57 L674.215,131.256 L683.43,131.256 L683.43,140.471 L687.116,140.471 L687.116,131.256 L696.331,131.256 L696.331,127.57 L687.116,127.57 Z" />
        </g>
    </g>
</svg>