<svg width="16" height="16" viewBox="0 0 16 16" fill="none" xmlns="http://www.w3.org/2000/svg">
<g clip-path="url(#clip0_3891_9263)">
<path d="M8 0.5C12.1421 0.5 15.5 3.85786 15.5 8C15.5 8.36648 15.4727 8.72668 15.4219 9.0791C14.6356 8.40687 13.6156 8 12.5 8H9.5C7.01472 8 5 10.0147 5 12.5C5 13.5126 5.33401 14.4473 5.89844 15.1992C2.77954 14.2903 0.5 11.4124 0.5 8C0.5 3.85786 3.85786 0.5 8 0.5Z" fill="#1074CC"/>
<path d="M8 0C12.4183 0 16 3.58172 16 8C16 8.51422 15.9492 9.01667 15.8564 9.50391C15.5935 9.20954 15.2924 8.95041 14.9609 8.7334C14.986 8.49232 15 8.24772 15 8C15 4.13401 11.866 1 8 1C4.13401 1 1 4.13401 1 8C1 10.9793 2.86214 13.5217 5.48535 14.5322C5.74112 15.0365 6.08887 15.4856 6.50684 15.8584C2.80238 15.1588 0 11.9078 0 8C0 3.58172 3.58172 0 8 0Z" fill="#045EB2"/>
<path d="M8.99382 2.24674C9.0699 2.24328 9.14688 2.27211 9.20671 2.32291C9.2664 2.37402 9.30461 2.44361 9.31315 2.5192C9.32159 2.59503 9.29979 2.67284 9.25261 2.736C9.20541 2.79851 9.13605 2.84281 9.0612 2.85611C8.86714 2.89149 8.67554 2.94275 8.48893 3.0065C7.7735 3.25192 7.13121 3.67727 6.56901 4.17643C6.54279 4.19975 6.51685 4.22499 6.49089 4.24869C5.76171 4.91594 5.19484 5.74596 4.75847 6.62271C4.73999 6.6599 4.72178 6.69858 4.70378 6.73599C4.54231 7.07233 4.39861 7.42003 4.28093 7.77505C4.33672 7.82717 4.39317 7.87927 4.44987 7.93033C5.02485 8.44638 5.66087 8.89838 6.31706 9.31802C6.03278 9.60239 5.78691 9.92512 5.58659 10.277C5.02483 9.87474 4.49587 9.42477 4.00358 8.93326C3.97017 9.1571 3.94623 9.38272 3.93913 9.60904C3.93826 9.63826 3.93769 9.66781 3.93718 9.69693C3.92532 10.3834 4.01504 11.0804 4.29362 11.7116C4.37215 11.889 4.46666 12.0601 4.57585 12.2213C4.61878 12.284 4.63423 12.3645 4.62272 12.442C4.6109 12.5196 4.57265 12.5892 4.51335 12.6364C4.45383 12.6833 4.37676 12.7052 4.29851 12.6989C4.22072 12.6923 4.14643 12.659 4.09538 12.6032C3.9408 12.4314 3.79965 12.2457 3.67448 12.0504C3.2303 11.3576 2.98271 10.5433 2.92448 9.72818C2.922 9.69363 2.91946 9.65837 2.91765 9.62368C2.887 9.02445 2.93637 8.42387 3.05632 7.83951C2.71476 7.36908 2.41626 6.8556 2.23991 6.26724C2.17121 6.02943 2.12518 5.77667 2.12956 5.51334C2.13178 5.43679 2.1658 5.36126 2.22136 5.30533C2.27687 5.24983 2.34942 5.2172 2.42546 5.21451C2.50168 5.21201 2.57718 5.23985 2.6364 5.29166C2.69542 5.34374 2.73552 5.41672 2.74284 5.49283C2.76253 5.67094 2.81894 5.854 2.89811 6.03189C3.01701 6.29485 3.17723 6.54543 3.36101 6.78482C3.43296 6.59001 3.50905 6.39638 3.59733 6.20865C3.618 6.16481 3.63925 6.12021 3.66081 6.07681C4.17165 5.05082 4.93142 4.15864 5.83659 3.46354C5.86907 3.43863 5.90327 3.41258 5.9362 3.38834C6.63868 2.87138 7.45402 2.49444 8.31315 2.32975C8.53771 2.28686 8.76591 2.25851 8.99382 2.24674ZM11.7555 3.83854C11.8305 3.83181 11.9064 3.85535 11.9684 3.90299C12.0301 3.95073 12.0739 4.01926 12.0866 4.09342C12.1203 4.30187 12.1358 4.51021 12.1403 4.71646C12.153 5.45768 12.0361 6.18136 11.8366 6.87271C11.8359 6.87499 11.8353 6.87822 11.8346 6.88052C11.7233 7.25932 11.5963 7.6332 11.4528 7.99966H10.1891C10.4404 7.5282 10.6729 7.04721 10.8678 6.5524C10.8686 6.55043 10.869 6.54751 10.8698 6.54556C11.1079 5.93327 11.3339 5.30929 11.4342 4.67447C11.4613 4.49851 11.477 4.32179 11.4762 4.14908C11.4753 4.07376 11.5061 3.99725 11.5583 3.93912C11.6106 3.88138 11.6809 3.84552 11.7555 3.83854Z" fill="#A1D0F7"/>
<path d="M6 12.5C6 10.567 7.567 9 9.5 9H12.5C14.433 9 16 10.567 16 12.5C16 14.433 14.433 16 12.5 16H9.5C7.567 16 6 14.433 6 12.5Z" fill="#247A64"/>
<path d="M12.5 15V16H9.5V15H12.5ZM15 12.5C15 11.1193 13.8807 10 12.5 10H9.5C8.11929 10 7 11.1193 7 12.5C7 13.8807 8.11929 15 9.5 15V16C7.567 16 6 14.433 6 12.5C6 10.6273 7.47083 9.09842 9.32031 9.00488L9.5 9H12.5L12.6797 9.00488C14.5292 9.09842 16 10.6273 16 12.5C16 14.433 14.433 16 12.5 16V15C13.8807 15 15 13.8807 15 12.5Z" fill="#589D88"/>
<path d="M15 12.5C15 13.8807 13.8807 15 12.5 15C11.1193 15 10 13.8807 10 12.5C10 11.1193 11.1193 10 12.5 10C13.8807 10 15 11.1193 15 12.5Z" fill="white"/>
</g>
<defs>
<clipPath id="clip0_3891_9263">
<rect width="16" height="16" fill="white"/>
</clipPath>
</defs>
</svg>
